# xmcd
#
# Track frame offsets:
#	150
#	24799
#	46752
#	68491
#	89954
#	110905
#	127899
#	144085
#	158514
#	171531
#
# Disc length: 2451 seconds
#
# Revision: 0
# Processed by: cddbd v1.5.2PL0 Copyright (c) Steve Scherf et al.
# Submitted via: EZCDAudioConverter 2.1.7.1
#
DISCID=7c09910a
DTITLE=Erica Sunshine Lee - Struggle Street
DYEAR=2008
DGENRE=Country
TTITLE0=Learning the Hard Way
TTITLE1=Tamarindo
TTITLE2=Not Hard to Replace
TTITLE3=The Paddlewheel
TTITLE4=What am I Fighting For
TTITLE5=Like I Did
TTITLE6=Struggle Street
TTITLE7=Fool Me
TTITLE8=Little Girl
TTITLE9=I'm just fine
EXTD=
EXTT0=
EXTT1=
EXTT2=
EXTT3=
EXTT4=
EXTT5=
EXTT6=
EXTT7=
EXTT8=
EXTT9=
PLAYORDER=
